<?xml version="1.0" encoding="UTF-8"?>
<svg width="40px" height="40px" viewBox="0 0 40 40" xmlns="http://www.w3.org/2000/svg">
  <defs>
    <linearGradient id="gradient" x1="0%" y1="0%" x2="100%" y2="100%">
      <stop offset="0%" stop-color="#4ecca3" />
      <stop offset="100%" stop-color="#3db390" />
    </linearGradient>
  </defs>
  <g fill="none" fill-rule="evenodd">
    <circle fill="url(#gradient)" cx="20" cy="20" r="20" />
    <path d="M28.5,15 C29.8807119,15 31,16.1192881 31,17.5 C31,18.8807119 29.8807119,20 28.5,20 C27.1192881,20 26,18.8807119 26,17.5 C26,16.1192881 27.1192881,15 28.5,15 Z M11.5,15 C12.8807119,15 14,16.1192881 14,17.5 C14,18.8807119 12.8807119,20 11.5,20 C10.1192881,20 9,18.8807119 9,17.5 C9,16.1192881 10.1192881,15 11.5,15 Z" fill="#FFFFFF" />
    <path d="M20,10 C25.5228475,10 30,14.4771525 30,20 C30,25.5228475 25.5228475,30 20,30 C14.4771525,30 10,25.5228475 10,20 C10,14.4771525 14.4771525,10 20,10 Z M20,14 C16.6862915,14 14,16.6862915 14,20 C14,23.3137085 16.6862915,26 20,26 C23.3137085,26 26,23.3137085 26,20 C26,16.6862915 23.3137085,14 20,14 Z" fill="#FFFFFF" fill-rule="nonzero" />
    <path d="M20,22 C21.1045695,22 22,22.8954305 22,24 C22,25.1045695 21.1045695,26 20,26 C18.8954305,26 18,25.1045695 18,24 C18,22.8954305 18.8954305,22 20,22 Z" fill="#FFFFFF" />
  </g>
</svg>
